<svg width="838" height="841" viewBox="0 0 838 841" fill="none" xmlns="http://www.w3.org/2000/svg">
<rect width="838" height="841" fill="white"/>
<rect width="838" height="840" transform="translate(0 1)" fill="#EB0D3F"/>
<path d="M417.382 256.932L364.129 287.523C363.121 288.102 362.5 289.175 362.5 290.337V352.216C362.5 353.338 363.08 354.381 364.035 354.973L417.288 388.012C418.336 388.663 419.664 388.663 420.712 388.012L473.965 354.973C474.92 354.381 475.5 353.338 475.5 352.216V290.337C475.5 289.175 474.879 288.102 473.871 287.523L420.618 256.932C419.616 256.356 418.384 256.356 417.382 256.932Z" stroke="white" stroke-width="14"/>
<path d="M418.105 279.193L382.793 299.627C382.291 299.917 381.983 300.452 381.983 301.031V342.372C381.983 342.931 382.271 343.451 382.746 343.748L418.058 365.817C418.585 366.146 419.253 366.146 419.78 365.817L455.092 343.748C455.567 343.451 455.855 342.931 455.855 342.372V301.031C455.855 300.452 455.546 299.917 455.045 299.627L419.732 279.193C419.229 278.901 418.609 278.901 418.105 279.193Z" stroke="white" stroke-width="14"/>
<path d="M418.103 300.293L400.65 310.432C400.15 310.723 399.842 311.257 399.842 311.835V332.391C399.842 332.95 400.129 333.469 400.602 333.766L418.056 344.716C418.583 345.047 419.254 345.047 419.782 344.716L437.235 333.766C437.708 333.469 437.996 332.95 437.996 332.391V311.835C437.996 311.257 437.688 310.723 437.188 310.432L419.735 300.293C419.23 300 418.607 300 418.103 300.293Z" stroke="white" stroke-width="14"/>
<path d="M271.58 561.5H250.273L274.278 488.773H301.267L325.273 561.5H303.966L288.057 508.801H287.489L271.58 561.5ZM267.602 532.807H307.659V547.58H267.602V532.807ZM352.022 488.773V561.5H332.277V488.773H352.022ZM381.265 488.773L396.18 540.051H396.748L411.663 488.773H433.964L409.958 561.5H382.97L358.964 488.773H381.265ZM460.456 562.494C454.632 562.494 449.613 561.382 445.399 559.156C441.208 556.907 437.977 553.687 435.704 549.497C433.455 545.283 432.331 540.241 432.331 534.369C432.331 528.735 433.467 523.811 435.74 519.597C438.012 515.383 441.22 512.104 445.363 509.76C449.506 507.416 454.395 506.244 460.029 506.244C464.149 506.244 467.877 506.884 471.216 508.162C474.554 509.44 477.406 511.299 479.774 513.737C482.141 516.152 483.964 519.088 485.243 522.544C486.521 526 487.16 529.895 487.16 534.227V538.773H438.439V527.977H469.12C469.097 526.415 468.694 525.042 467.913 523.858C467.155 522.651 466.126 521.715 464.824 521.053C463.545 520.366 462.089 520.023 460.456 520.023C458.869 520.023 457.413 520.366 456.088 521.053C454.762 521.715 453.697 522.639 452.892 523.822C452.11 525.006 451.696 526.391 451.649 527.977V539.625C451.649 541.377 452.016 542.939 452.75 544.312C453.484 545.686 454.537 546.763 455.91 547.544C457.283 548.325 458.94 548.716 460.882 548.716C462.231 548.716 463.462 548.527 464.575 548.148C465.711 547.769 466.682 547.224 467.487 546.514C468.292 545.78 468.884 544.904 469.262 543.886H487.16C486.545 547.674 485.089 550.965 482.792 553.759C480.496 556.528 477.454 558.683 473.666 560.222C469.902 561.737 465.498 562.494 460.456 562.494ZM545.017 524.71H526.977C526.883 523.598 526.492 522.639 525.805 521.834C525.119 521.029 524.231 520.413 523.142 519.987C522.077 519.537 520.893 519.312 519.591 519.312C517.91 519.312 516.466 519.62 515.259 520.236C514.051 520.851 513.459 521.727 513.483 522.864C513.459 523.669 513.803 524.414 514.513 525.101C515.247 525.787 516.655 526.32 518.739 526.699L529.818 528.688C535.405 529.705 539.56 531.422 542.283 533.837C545.029 536.228 546.414 539.436 546.438 543.46C546.414 547.343 545.254 550.716 542.957 553.581C540.685 556.422 537.571 558.624 533.618 560.186C529.688 561.725 525.202 562.494 520.159 562.494C511.826 562.494 505.304 560.79 500.592 557.381C495.905 553.972 493.289 549.473 492.744 543.886H512.205C512.465 545.615 513.317 546.952 514.761 547.899C516.229 548.822 518.076 549.284 520.301 549.284C522.1 549.284 523.58 548.976 524.74 548.361C525.924 547.745 526.527 546.869 526.551 545.733C526.527 544.691 526.007 543.863 524.989 543.247C523.994 542.632 522.432 542.134 520.301 541.756L510.642 540.051C505.079 539.08 500.912 537.234 498.142 534.511C495.372 531.789 493.999 528.285 494.023 524C493.999 520.212 494.993 517.004 497.006 514.376C499.042 511.725 501.942 509.713 505.706 508.339C509.494 506.943 513.98 506.244 519.165 506.244C527.048 506.244 533.263 507.878 537.808 511.145C542.377 514.412 544.78 518.934 545.017 524.71ZM586.477 506.955V521.159H550.539V506.955H586.477ZM557.499 493.886H577.102V543.957C577.102 544.715 577.232 545.354 577.492 545.875C577.753 546.372 578.155 546.751 578.7 547.011C579.244 547.248 579.942 547.366 580.795 547.366C581.387 547.366 582.073 547.295 582.854 547.153C583.659 547.011 584.251 546.893 584.63 546.798L587.471 560.577C586.595 560.837 585.34 561.157 583.707 561.536C582.097 561.914 580.179 562.163 577.954 562.281C573.456 562.518 569.68 562.056 566.626 560.896C563.572 559.713 561.275 557.854 559.737 555.321C558.198 552.788 557.452 549.616 557.499 545.804V493.886Z" fill="white"/>
</svg>
